<svg width="28" height="28" viewBox="0 0 28 28" fill="none" xmlns="http://www.w3.org/2000/svg">
<path d="M3.0625 14L2.17862 13.1161L1.29473 14L2.17862 14.8839L3.0625 14ZM24.9375 15.25C25.6279 15.25 26.1875 14.6904 26.1875 14C26.1875 13.3096 25.6279 12.75 24.9375 12.75V15.25ZM11.8125 5.25L10.9286 4.36612L2.17862 13.1161L3.0625 14L3.94638 14.8839L12.6964 6.13388L11.8125 5.25ZM3.0625 14L2.17862 14.8839L10.9286 23.6339L11.8125 22.75L12.6964 21.8661L3.94638 13.1161L3.0625 14ZM3.0625 14V15.25H24.9375V14V12.75H3.0625V14Z" fill="#3E8DCD"/>
</svg>
